<?xml version="1.0" standalone="no"?>
<svg xmlns="http://www.w3.org/2000/svg" height="1920pt" preserveAspectRatio="xMidYMid meet" viewBox="0 0 1907 1920" width="1907pt">
  <path d="m15460 18960c-456-28-1096-127-1197-186-61-35-106-100-142-205l-16-48-55 45c-70 59-139 94-198 100-38 4-84-6-233-50-1933-574-3767-1669-5517-3294-81-75-289-278-463-452-253-252-324-329-357-385-46-79-105-222-223-540-44-121-83-222-85-224s-18 9-36 24c-83 71-193 85-287 39-43-22-78-57-207-210-1135-1345-2216-2976-2933-4424-270-545-393-857-450-1145-115-574-142-1291-72-1853 9-74 14-135 10-137-3-3-109-40-235-83-278-95-389-142-474-198-217-142-798-752-1299-1364-79-96-115-151-156-235-132-270-290-746-335-1005-6-36-56-209-110-385-160-520-200-679-200-789v-63l104-17c170-26 301-19 466 26 229 62 488 214 683 402 38 36 70 66 72 66 6 0-86-224-105-255-10-16-30-68-43-115-14-47-61-191-106-320-158-462-228-716-311-1130-51-251-67-350-57-350 7 0 109 183 194 350 79 154 207 427 335 710 48 107 91 195 95 195 5 0 37-14 73-32l65-31 105 13c339 43 717 66 1103 66h307l223-154c627-434 923-617 1000-617 20 0 41 13 76 48 64 64 91 136 98 264 3 54 7 98 8 98s62-36 134-79c143-86 237-128 307-138 44-6 46-5 98 49 64 66 86 121 93 239l6 87 86-40c117-53 192-78 241-78 37 0 48 6 99 58 72 72 101 141 101 242v70h118c130 0 399-21 597-45 176-22 598-31 762-16 368 34 641 107 1182 317 535 208 701 251 1258 329 142 20 299 45 348 56 353 77 594 225 822 506 41 51 81 93 87 93s225-20 486-45c1323-126 1844-174 1845-172 1 1 19 61 39 132 210 737 205 1567-14 2430-49 193-161 533-222 670-37 86-47 100-69 103-14 2-466-31-1005-73-639-50-1002-75-1047-71-143 13-507 117-1310 376-1459 469-2229 675-2935 784-84 13-156 27-159 30-4 4 49 64 118 134 630 638 1382 1543 2834 3412 404 520 720 923 1019 1300 791 998 1450 1783 2046 2439 268 296 279 309 296 370 30 101-13 222-140 396-36 49-66 93-66 96 0 4 129 9 288 12 299 6 373 14 467 56 33 15 115 88 293 262 1325 1298 2540 2163 3910 2785 206 94 467 201 895 369 180 70 325 130 323 132-3 4-956 134-1084 149-55 6-63 10-68 31-4 16-12 22-23 19-87-25-103-26-223-12-191 23-512 54-743 72-246 18-988 27-1205 14zm913-377c87-3 154-10 150-14s-41-17-82-29c-143-42-690-242-996-365-534-213-1273-551-1700-778-118-63-141-72-147-58-9 17-178 788-178 808 0 6 24 19 53 27 28 9 115 36 192 60l140 43 97-88c123-110 179-139 267-139 55 0 75 5 118 30 81 47 119 110 168 285l22 80 104 22c226 47 563 91 854 112 150 10 727 13 938 4zm-2984-899c51-234 92-426 90-428-2-1-29-16-59-33s-128-72-218-123-166-89-170-85c-4 3-48 215-98 471l-90 464 55 21c45 17 157 58 361 132 8 3 20 6 26 6 6 1 50-182 103-425zm2755 165c-300-181-665-428-989-669-568-424-1069-858-1749-1514l-207-199-332-8c-358-8-447-18-534-63-103-51-160-149-150-256 8-97 53-180 209-391l56-76-125-139c-69-76-212-236-317-354-133-151-196-215-211-214-48 1-1675 289-1673 296 5 12 286 249 538 454 825 669 1532 1164 2450 1714 732 439 1335 749 2130 1095 285 124 971 392 1009 394 7 1-40-31-105-70zm-3326-426c51-263 92-481 92-485 0-3-21-18-47-34-27-15-146-88-266-162-120-73-220-132-223-129-10 10-233 1031-227 1038 16 15 551 247 573 249 3 0 47-215 98-477zm-677-364c65-288 114-527 111-530-18-15-394-259-400-259-7 0-275 1101-270 1106 14 11 425 212 432 210 5-1 62-238 127-527zm-1122-46c18-67 271-1127 271-1135 0-5-48-44-107-88-92-68-109-77-115-62-8 21-267 1143-271 1173-2 17 18 34 98 84 55 35 103 64 107 64 4 1 12-16 17-36zm-650-1069c76-329 142-615 145-634 5-34 3-37-61-88-37-30-68-50-70-45-28 106-293 1276-290 1279 14 14 131 93 134 91 1-2 65-273 142-603zm-829 92c0-3 68-298 150-657 83-358 150-655 150-659 0-16-260-240-265-228-23 64-343 1314-337 1319 4 3 52 42 107 85 55 44 118 94 140 112 37 29 55 38 55 28zm-241-988 173-663-58-54c-33-30-134-124-227-210-92-86-172-157-177-159-6-2-10 2-10 10 0 7-70 319-157 692l-157 679 30 26c17 14 113 97 214 184 100 86 186 157 189 157s84-298 180-662zm-554-518 156-675-333-336c-183-184-411-419-507-522s-178-187-183-187c-4 0-8 6-8 13 0 8-76 305-169 662l-170 648 44 91c41 85 55 103 207 256 216 219 470 465 648 629 123 113 145 130 152 115 4-11 77-323 163-694zm2075-525c459-79 848-148 864-152l29-8-133-155c-115-134-137-155-159-152-24 3-1190 220-1585 295l-168 32 158 142c88 78 159 142 159 143 0 0 376-65 835-145zm-3206-688c100-384 154-606 150-622-3-13-52-75-108-137-212-235-658-751-722-836-8-9-14-14-14-10 0 3-81 316-180 694-99 379-180 695-180 703 0 10 125 168 201 255 5 5 26-7 50-28 59-54 112-76 187-76 164 0 255 113 397 497 33 89 60 161 61 160s72-271 158-600zm2646 308c793-148 1037-193 1068-200 20-5 5-26-149-210-94-113-177-205-184-205-20 0-1858 339-1862 344-2 2 91 94 207 204 137 129 218 198 228 196s321-60 692-129zm-3620-1334c99-381 180-697 178-702s-84-110-183-233c-156-195-181-222-187-203-10 29-318 1404-318 1418 0 12 7 22 193 257 71 90 131 162 132 160 2-2 85-315 185-697zm2306 455c192-36 621-115 954-176s615-114 627-118c20-7 18-11-39-82-33-41-68-76-77-78-10-2-285 40-612 92s-772 122-989 156-401 64-408 66c-13 4 172 204 189 204 4 0 164-29 355-64zm-2756-1029 161-717-234-313c-128-171-285-383-348-470-62-87-115-154-116-150-10 30-333 1377-333 1387 0 29 693 997 705 984 2-2 76-326 165-721zm2099 268c223-35 690-110 1036-165 347-55 633-101 636-103 4-1-127-173-291-382-163-209-493-632-733-939l-436-559-68 2c-252 6-2287 72-2289 74-10 10 560 746 894 1155 284 349 827 982 841 982 3 0 187-29 410-65zm-3280-1942c90-370 161-677 159-682-8-22-264-401-270-401-5 0-8 8-8 18 0 9-68 315-151 680l-150 662 123 204c68 112 126 201 129 198 3-4 79-310 168-679zm2339-298c574-18 1045-34 1047-36s-106-141-238-308l-242-303-145 6c-80 3-552 9-1050 12-498 4-958 10-1023 13l-117 6 163 231c90 126 195 273 234 326l71 96 129-5c70-2 597-19 1171-38zm-3068-902c77-342 140-627 140-632 0-6-101-179-224-383-295-493-582-996-781-1373-65-123-63-120-70-114-2 3-9 111-15 240-26 564 53 1296 175 1624 97 259 260 610 473 1022 120 231 148 279 154 260 4-12 71-302 148-644zm2485 146c572-6 1042-13 1044-15 6-5-384-479-656-794l-133-155-408 17c-224 9-524 21-667 27s-435 18-650 27c-214 9-392 18-394 20-2 1 129 201 290 443l293 441h120c67 0 589-5 1161-11zm-990-1164c484-19 913-38 953-41l73-6-38-42c-21-23-65-71-99-108l-61-67-994 49c-547 27-996 49-998 50-2 0 3 8 11 18 8 9 39 56 68 105l53 87 76-5c42-3 472-21 956-40zm-910-685c846-41 1250-61 1259-63 11-4-219-225-406-389-679-598-1271-932-1828-1033-52-9-166-19-252-22l-157-6-6 26c-6 21 9 56 71 169 188 346 443 796 664 1170l105 177 70-5c38-2 255-13 480-24zm1685-482c304-41 744-131 1140-234 538-140 929-258 2050-618 615-199 933-289 1125-320 83-13 123-11 1028 59 518 40 945 70 949 67 17-16 141-416 187-603 78-317 116-549 142-864 15-181 6-680-15-833-25-187-83-483-97-496-2-2-213 16-469 40s-706 66-1000 94c-294 27-555 53-579 56l-43 6 6 41c16 111 45 416 51 532l5 130-58-170c-168-485-248-638-436-827-221-223-400-294-916-363-504-68-726-122-1135-277-115-44-293-111-394-149-292-111-526-173-791-211-159-22-625-17-855 10-396 45-695 57-1040 42-241-11-344-19-835-64-146-14-323-28-395-32l-130-6-49 138c-27 77-52 143-56 147-17 20-33-87-27-184l6-99h-74-74l-7 38c-9 53-74 325-78 329-2 2-16-18-31-44-27-48-27-49-20-182l7-133-39 6c-191 29-639 49-898 40l-190-6-44 127c-58 165-121 296-155 323-63 49-219 50-433 3-46-10-83-17-83-15 0 1 9 23 20 48 23 56 58 88 180 171 367 247 872 343 1621 305 292-14 265-4 362-134l52-69 6 49c4 27 4 82 1 122-4 54-2 72 8 72 34 0 425 208 1045 557 679 382 937 521 1065 572 83 33 265 71 338 71 26 0 60-7 76-15 34-18 36-18 36-5 0 5-16 28-35 49-30 32-33 40-19 43 10 2-70 38-177 81-118 48-219 96-259 122-161 110-380 333-603 612l-65 83 22 72c45 142 81 218 103 218 7 0 13 5 13 10 0 20-38 10-81-22-24-17-77-64-117-105-46-46-92-82-120-95-132-56-356-85-1030-133-718-51-913-73-1080-121-137-40-193-75-265-164-16-19 23 66 86 190s149 294 192 378l78 154 36-6c90-14 392-18 496-7 606 65 1216 360 1930 935 107 86 361 309 485 425l75 71 65-6c36-3 130-15 210-26zm-3737-1375c-130-263-334-689-453-946l-216-468-65-43c-121-81-345-206-370-206-13 1-53 7-89 15-36 7-66 12-68 11-1-2 31-25 72-52l75-49 6-70c13-132-24-335-90-498-77-189-237-402-414-549-103-85-242-176-331-216-73-32-192-73-188-64 2 4 33 64 71 133 149 280 227 468 227 550 0 90-61 163-175 210l-52 22 18 86c66 299 249 810 343 955 118 181 739 881 1059 1192 188 184 257 236 377 287 86 36 470 174 492 176 3 1-100-214-229-476zm2520-651c27-35 47-65 45-68-9-9-224-42-789-124-305-44-627-94-716-111l-161-31-139 60c-76 33-139 58-141 57-4-3 162-164 187-182 12-8 21-23 21-33 0-31-104-228-179-340-153-228-373-475-475-535l-48-28-150 9c-82 5-152 6-155 2-2-5 2-8 9-8s81-27 164-61c145-58 156-64 299-177l149-117-130-7c-327-17-546-52-787-125l-87-26-53 37c-28 20-60 42-70 50-17 13-6 40 168 427 261 577 233 528 367 641 136 116 296 279 401 409 70 87 82 98 129 113 143 44 395 73 1083 121 512 37 749 62 890 94 44 11 89 18 99 17 11 0 42-29 69-64zm236-273c46-49 82-91 80-93-8-7-329-75-494-105-249-45-462-72-615-78l-135-5-109 46c-60 26-110 45-112 43s35-41 81-87c47-47 85-92 85-100 0-9-16-48-35-88-67-140-195-312-354-475-157-160-171-169-320-192-66-10-121-22-121-25 0-4 21-10 48-13 162-19 170-22 292-118 63-50 116-94 118-98 1-5-21-18-49-31-52-22-53-22-261-9l-209 12-177 140c-97 76-181 143-186 147-5 5 9 23 30 41 227 190 560 652 624 865l12 42 77 16c125 26 290 52 836 131 286 41 576 86 645 99s134 24 145 24c13 1 50-31 104-89zm336-341c-27-16-269-69-443-98-193-32-387-55-554-65l-107-7-72 59-72 58 99 13c318 40 718 112 914 165l85 23 82-71c60-51 78-72 68-77zm-1248-151 53-88-24-60c-31-76-75-149-156-257-132-176-372-402-427-402-17 0-54 21-101 58-41 31-79 60-84 63s39 53 97 110c119 115 241 261 321 385 54 82 134 238 134 260 0 15 30 22 89 20l45-1zm833-78c-43-27-965-545-968-543-2 1 24 35 58 76 104 122 184 249 233 369l15 36 118 7c126 7 327 29 464 50 47 8 87 14 90 14 3 1-2-4-10-9zm-4693-884c47-28 59-55 50-110-16-98-285-631-326-646-15-6-21-4-21 5 0 24 119 442 216 759 7 24 30 21 81-8zm1437-833c16-9 146-322 146-351 0-5-46-12-102-16-137-9-515-44-556-51-28-6-37-2-67 30l-34 37 18 47c75 190 97 235 117 242 42 16 251 60 329 68 75 9 128 7 149-6zm3386-596c0-64-26-138-59-170-40-38-63-33-242 57-131 65-145 75-153 105-5 18-7 34-4 37 5 6 440 22 451 17 4-2 7-22 7-46zm-565-86c34-127 36-251 4-317-12-24-28-47-36-50-26-10-188 75-383 202l-96 61-18 78c-10 42-16 79-15 81 8 6 504 51 511 46 4-4 19-49 33-101zm-1420 39c79-8 225-10 431-6l312 5 16-61c31-115 46-219 46-310 0-101-12-158-42-200l-20-28-75 41c-120 65-826 530-868 572-7 7 5 8 35 5 25-4 99-12 165-18z" transform="matrix(.1 0 0 -.1 0 1920)" fill="#000000" stroke="none" stroke-width="2" vector-effect="non-scaling-stroke"/>
</svg>
